<?xml version="1.0" standalone="no"?>
<!DOCTYPE svg PUBLIC "-//W3C//DTD SVG 20010904//EN"
 "http://www.w3.org/TR/2001/REC-SVG-20010904/DTD/svg10.dtd">
<svg version="1.0" xmlns="http://www.w3.org/2000/svg"
 width="328.000000pt" height="154.000000pt" viewBox="0 0 328.000000 154.000000"
 preserveAspectRatio="xMidYMid meet">

<g transform="translate(0.000000,154.000000) scale(0.100000,-0.100000)"
fill="#000000" stroke="none">
<path d="M0 770 l0 -770 1640 0 1640 0 0 770 0 770 -1640 0 -1640 0 0 -770z
m415 735 c28 -7 41 -14 30 -14 -11 -1 -37 4 -57 9 -30 9 -44 8 -67 -5 -17 -8
-48 -15 -70 -15 -33 0 -44 -5 -58 -26 -16 -25 -61 -50 -71 -40 -3 3 6 10 19
15 13 5 35 21 48 35 19 20 34 26 65 26 23 1 52 7 66 15 31 17 33 17 95 0z
m1068 -22 c18 -9 27 -18 20 -20 -7 -2 -22 1 -34 8 -20 10 -26 7 -56 -27 -33
-39 -40 -54 -25 -54 4 0 15 -16 24 -35 12 -28 13 -37 3 -43 -11 -6 -18 -46
-41 -229 l-5 -41 -69 0 -68 0 -6 31 c-3 18 -6 80 -7 140 0 59 -5 107 -10 107
-20 0 -7 34 26 67 34 34 39 35 85 30 48 -6 49 -5 85 39 20 24 39 44 41 44 3 0
19 -7 37 -17z m1622 -4 c0 -8 4 -19 8 -25 4 -7 0 -17 -7 -23 -12 -10 -14 -9
-10 6 6 22 -25 64 -33 45 -2 -7 -11 -19 -19 -26 -20 -20 -17 -36 5 -36 10 0
22 -7 25 -16 5 -14 9 -14 24 -3 15 13 16 12 4 -3 -13 -17 -42 -14 -42 3 0 5
-9 9 -20 9 -24 0 -25 16 -4 59 13 25 21 31 42 28 15 -2 27 -10 27 -18z m-3005
1 c0 -5 -4 -10 -10 -10 -5 0 -10 5 -10 10 0 6 5 10 10 10 6 0 10 -4 10 -10z
m510 0 c0 -5 -7 -10 -15 -10 -8 0 -15 5 -15 10 0 6 7 10 15 10 8 0 15 -4 15
-10z m1750 6 c0 -2 -9 -6 -20 -9 -11 -3 -18 -1 -14 4 5 9 34 13 34 5z m-770
-21 c0 -8 -4 -15 -10 -15 -5 0 -10 7 -10 15 0 8 5 15 10 15 6 0 10 -7 10 -15z
m390 5 c0 -5 -4 -10 -10 -10 -5 0 -10 5 -10 10 0 6 5 10 10 10 6 0 10 -4 10
-10z m423 -2 c12 -6 29 -14 37 -18 8 -4 16 -16 17 -26 2 -16 1 -15 -9 4 -6 13
-20 22 -33 22 -13 0 -28 7 -35 15 -15 18 -8 19 23 3z m-1902 -24 c8 -8 23 -14
32 -14 22 0 32 -37 15 -58 -7 -9 -34 -39 -59 -67 -25 -27 -63 -69 -84 -93 -21
-23 -40 -40 -43 -38 -3 3 0 12 7 20 9 11 7 15 -9 19 -23 6 -27 -18 -7 -44 13
-17 176 -97 241 -119 45 -14 49 -22 33 -53 -16 -30 -94 -107 -110 -107 -6 0
-18 -6 -26 -14 -17 -14 -96 -28 -105 -18 -3 3 2 11 12 18 16 12 15 13 -5 14
-13 0 -23 5 -23 10 0 6 7 10 15 10 18 0 20 38 4 93 -11 41 -12 42 -39 25 -16
-10 -23 -9 -43 10 -13 12 -27 22 -32 22 -5 0 -26 -16 -46 -36 l-37 -36 -23 21
c-34 31 -37 16 -3 -19 25 -27 74 -60 88 -60 2 0 2 8 -1 18 -6 25 20 44 54 40
22 -2 29 -9 31 -31 3 -21 -2 -29 -20 -36 -23 -10 -22 -10 5 -10 15 -1 27 -5
27 -11 0 -13 -7 -13 -67 5 -27 8 -66 26 -86 39 -35 24 -47 24 -47 1 0 -10 41
-37 60 -39 3 -1 19 -11 37 -24 32 -23 48 -28 39 -13 -3 4 12 5 34 1 22 -4 40
-5 40 -2 0 2 7 -1 15 -8 20 -17 9 -33 -15 -20 -10 5 -32 7 -48 4 -17 -3 -32
-1 -36 5 -4 6 -25 15 -46 21 -22 6 -40 15 -40 20 0 6 -8 10 -18 10 -23 0 -82
72 -82 100 0 12 -4 29 -9 38 -10 20 -15 133 -8 200 3 28 13 53 29 70 14 15 29
37 32 49 4 11 21 28 39 36 18 9 40 25 49 36 11 13 30 21 50 21 18 0 40 5 48
10 21 14 161 1 181 -16z m274 6 c-10 -11 -21 -17 -24 -14 -3 3 3 12 13 20 28
20 32 17 11 -6z m1126 10 c10 -6 28 -28 39 -50 27 -53 37 -57 69 -26 15 14 37
26 49 26 35 0 43 -31 36 -130 -11 -139 25 -210 104 -210 36 0 81 20 102 45 20
25 85 55 118 55 42 0 59 -19 66 -74 8 -63 28 -86 76 -86 52 0 74 -26 65 -79
-4 -23 -12 -44 -18 -48 -7 -4 -8 0 -4 11 29 75 15 106 -47 106 -55 0 -73 19
-82 88 -13 99 -76 97 -204 -8 -16 -13 -42 -22 -68 -23 -33 -1 -47 4 -72 28
-44 42 -54 83 -46 195 6 99 0 120 -33 120 -8 0 -27 -12 -42 -26 -34 -33 -52
-27 -79 25 -32 63 -94 83 -124 39 -9 -12 -16 -18 -16 -14 0 37 68 58 111 36z
m210 -26 c20 -24 5 -23 -26 2 -25 20 -26 22 -8 18 12 -4 28 -13 34 -20z m704
13 c-8 -18 32 -40 53 -28 15 8 13 11 -12 21 -16 6 -27 13 -24 16 9 9 58 -15
58 -29 0 -8 11 -19 25 -25 14 -7 25 -18 24 -24 -4 -36 0 -41 25 -25 24 16 46
7 46 -18 0 -6 23 -50 50 -98 28 -48 50 -89 50 -92 0 -3 -9 -5 -21 -5 -11 0
-30 -5 -42 -11 -14 -6 -10 0 11 18 l32 28 -24 30 -24 30 -32 -23 c-17 -13 -34
-21 -37 -19 -2 3 6 11 18 18 23 12 23 12 4 20 -16 6 -13 8 15 9 19 1 29 4 22
7 -6 2 -9 9 -6 15 3 5 -4 12 -16 15 -16 4 -18 8 -8 14 10 7 11 9 0 9 -7 0 -10
5 -6 12 10 16 -7 5 -116 -77 -52 -39 -106 -78 -120 -87 -66 -45 -65 -44 -28
-77 29 -26 35 -28 49 -15 8 8 20 14 25 14 5 -1 -2 -10 -15 -21 l-25 -20 32
-31 c31 -31 31 -31 59 -13 l28 18 -24 -27 -25 -26 34 -35 33 -34 34 26 c23 18
37 23 44 16 7 -7 -1 -17 -26 -32 -47 -27 -59 -27 -85 6 -53 67 -173 193 -185
193 -7 0 -18 6 -24 14 -10 11 -9 16 4 23 14 8 13 12 -9 34 -14 13 -26 32 -26
41 0 9 -4 19 -8 22 -10 6 -8 63 3 90 5 11 3 21 -4 26 -7 4 -11 13 -10 21 1 8
-1 22 -6 32 -9 21 8 41 43 52 15 4 24 2 28 -10 4 -10 10 -12 18 -7 20 16 73
21 85 9 10 -9 14 -8 22 6 11 20 21 23 14 4z m-1895 -12 l35 1 -1 -69 c-2 -81
-10 -91 -96 -130 -62 -28 -59 -28 -112 30 l-29 32 34 53 c49 79 74 100 107 91
15 -5 43 -8 62 -8z m210 0 c0 -8 -4 -15 -9 -15 -13 0 -22 16 -14 24 11 11 23
6 23 -9z m88 -24 c-18 -16 -35 -27 -37 -25 -7 7 42 54 56 54 7 0 -1 -13 -19
-29z m1189 -15 c17 -15 20 -26 16 -50 -8 -43 -21 -56 -53 -56 -20 0 -29 -6
-34 -22 -3 -13 -23 -51 -45 -85 l-40 -62 -40 16 c-23 9 -41 21 -41 28 0 6 16
48 35 93 28 64 34 86 25 101 -5 11 -10 29 -10 39 0 17 7 20 45 20 25 -1 51 4
56 9 13 13 52 -1 86 -31z m790 15 c3 -11 11 -22 19 -25 8 -3 14 -14 14 -25 0
-15 -10 -23 -37 -30 -46 -13 -64 -1 -45 30 7 11 10 24 7 29 -4 6 -1 10 4 10
14 0 14 -37 1 -45 -18 -11 -1 -22 26 -17 31 6 43 31 21 44 -10 5 -17 16 -17
25 0 10 -6 13 -16 9 -8 -3 -12 -2 -9 4 10 16 27 11 32 -9z m-1547 -11 c0 -5
-2 -10 -4 -10 -3 0 -8 5 -11 10 -3 6 -1 10 4 10 6 0 11 -4 11 -10z m151 -20
c25 -14 62 -74 77 -125 6 -22 25 -87 42 -144 17 -57 29 -106 25 -109 -3 -3
-31 19 -63 50 -31 31 -78 75 -104 98 -27 25 -46 50 -45 61 1 11 24 35 54 56
29 20 53 40 53 44 0 4 -12 21 -26 38 -30 36 -65 40 -94 11 -32 -32 -36 -69
-11 -114 l22 -41 -25 28 c-37 40 -35 89 3 128 31 30 59 36 92 19z m-1173 -53
c2 -16 10 -31 18 -34 11 -4 13 -14 9 -34 -4 -18 -2 -29 4 -29 12 0 9 -145 -3
-157 -8 -8 -57 9 -158 55 l-77 34 44 57 c112 142 156 171 163 108z m1102 -19
c0 -23 -3 -29 -11 -21 -6 6 -8 20 -4 32 9 30 15 26 15 -11z m290 4 c0 -13 -12
-22 -22 -16 -10 6 -1 24 13 24 5 0 9 -4 9 -8z m533 -1 c10 -1 9 -69 -1 -75 -5
-3 -8 12 -8 32 1 32 -2 36 -24 36 -19 0 -26 -6 -31 -32 -6 -32 4 -52 16 -32 4
6 11 7 17 4 7 -5 3 -11 -11 -16 -32 -11 -40 -3 -37 38 4 40 16 52 49 48 12 -1
25 -3 30 -3z m-1020 -8 c-7 -2 -21 -2 -30 0 -10 3 -4 5 12 5 17 0 24 -2 18 -5z
m-444 -69 c11 -49 8 -144 -5 -144 -21 0 -99 48 -115 72 l-21 29 28 31 c27 29
82 68 95 68 3 0 11 -25 18 -56z m480 24 c31 -7 51 -17 51 -25 0 -21 -25 -66
-52 -90 l-24 -23 -27 28 c-30 31 -61 98 -52 112 8 13 43 12 104 -2z m1639 -31
c14 -17 0 -72 -18 -72 -7 0 -16 7 -18 15 -4 12 -3 13 10 3 13 -11 15 -8 16 23
1 29 -2 35 -14 30 -9 -3 -20 -6 -26 -6 -6 0 -8 -9 -5 -20 3 -11 1 -20 -4 -20
-19 0 -8 41 14 50 30 12 33 12 45 -3z m-628 -26 c0 -5 -7 -12 -16 -15 -14 -5
-15 -4 -4 9 14 17 20 19 20 6z m-628 -35 c2 -19 0 -32 -4 -30 -8 5 -12 64 -4
64 2 0 6 -15 8 -34z m-1043 -41 c28 -74 28 -122 0 -130 -23 -8 -108 2 -128 15
-22 13 -5 55 47 114 26 30 50 55 54 55 4 1 16 -24 27 -54z m2016 45 c5 -7 11
-8 19 -1 14 12 26 4 43 -26 13 -23 8 -53 -8 -53 -5 0 -9 -9 -9 -20 0 -24 -25
-37 -43 -22 -9 8 -16 6 -25 -9 -7 -10 -20 -19 -30 -19 -21 0 -46 45 -35 63 4
7 6 22 4 35 -1 14 4 25 16 29 10 4 24 13 31 20 16 16 29 17 37 3z m-1798 -47
c-3 -10 -5 -2 -5 17 0 19 2 27 5 18 2 -10 2 -26 0 -35z m2034 -50 c10 -19 9
-26 -6 -43 -10 -12 -25 -18 -32 -16 -7 3 -12 1 -10 -4 3 -14 -115 -92 -125
-82 -5 5 6 19 29 35 21 14 58 40 82 56 l44 31 -29 1 c-28 2 -27 2 6 9 19 4 26
8 15 9 -17 1 -18 3 -5 11 10 6 11 10 3 10 -7 0 -13 7 -13 15 0 8 -8 15 -17 15
-15 0 -16 2 -3 10 15 10 35 -8 61 -57z m-581 37 c0 -5 -4 -10 -10 -10 -5 0
-10 5 -10 10 0 6 5 10 10 10 6 0 10 -4 10 -10z m-915 -19 c7 -12 -12 -24 -25
-16 -11 7 -4 25 10 25 5 0 11 -4 15 -9z m715 -1 c0 -5 -2 -10 -4 -10 -3 0 -8
5 -11 10 -3 6 -1 10 4 10 6 0 11 -4 11 -10z m-1412 -41 c-3 -20 -5 -19 -9 9
-3 20 -2 29 4 23 5 -5 7 -19 5 -32z m2252 20 c0 -6 -4 -7 -10 -4 -5 3 -10 11
-10 16 0 6 5 7 10 4 6 -3 10 -11 10 -16z m-570 -4 c7 -8 8 -15 2 -15 -5 0 -15
7 -22 15 -7 8 -8 15 -2 15 5 0 15 -7 22 -15z m-1906 -19 c-3 -9 -10 -16 -15
-16 -6 0 -5 9 1 21 13 24 24 20 14 -5z m784 -71 l-3 -66 29 7 c21 5 27 3 24
-7 -3 -8 -16 -15 -30 -17 -25 -3 -26 -7 -33 -85 -7 -91 4 -137 33 -137 10 0
23 5 30 12 6 6 15 8 19 4 9 -9 -33 -46 -51 -46 -6 0 -22 7 -34 16 -21 14 -22
23 -22 130 l0 115 -35 -7 c-21 -4 -35 -2 -35 4 0 12 24 22 56 22 22 0 24 4 24
44 0 50 8 76 22 76 6 0 8 -27 6 -65z m607 -132 c0 -189 0 -188 48 -168 13 6
16 3 11 -9 -8 -21 -50 -31 -68 -17 -11 9 -19 9 -36 -1 -18 -11 -23 -10 -36 6
-28 39 -7 126 32 126 11 0 14 18 14 89 0 82 13 151 28 151 4 0 7 -80 7 -177z
m305 158 c13 -25 13 -61 0 -61 -5 0 -16 14 -25 30 -16 31 -29 37 -40 19 -4 -6
2 -20 13 -32 38 -41 37 -69 -5 -146 -21 -39 -43 -71 -49 -71 -6 0 -34 7 -62
15 l-52 16 0 77 c0 47 5 85 13 95 13 18 105 60 116 53 3 -2 17 2 31 10 34 18
48 17 60 -5z m-150 5 c0 -2 -17 -14 -37 -26 -28 -16 -33 -17 -23 -5 8 10 23
21 35 25 25 11 25 11 25 6z m930 -16 c0 -5 -5 -10 -11 -10 -5 0 -7 5 -4 10 3
6 8 10 11 10 2 0 4 -4 4 -10z m-2030 -20 c14 -14 20 -33 20 -66 0 -61 -23 -54
-30 9 -3 25 -9 49 -13 53 -15 16 -22 -12 -22 -93 0 -70 3 -86 18 -94 21 -12
22 -29 2 -29 -11 0 -14 -16 -12 -85 1 -49 -2 -86 -8 -87 -5 -2 -11 6 -12 17
-1 11 -5 50 -8 88 -6 62 -8 67 -31 67 -13 0 -24 5 -24 10 0 6 12 10 26 10 l27
0 -7 84 c-3 48 -2 96 4 110 12 32 42 34 70 6z m623 -5 c25 -25 29 -69 11 -114
-9 -22 -19 -41 -23 -41 -17 0 -18 14 -5 47 19 45 15 97 -8 101 -18 4 -23 -15
-32 -125 -4 -51 -2 -63 9 -63 19 0 19 -16 0 -24 -12 -4 -15 -24 -15 -86 0 -64
-3 -80 -15 -80 -12 0 -15 16 -15 85 0 84 0 85 -25 85 -14 0 -25 5 -25 10 0 6
11 10 25 10 26 0 28 6 39 122 3 31 9 63 12 72 8 20 48 21 67 1z m-813 -25 c0
-5 -2 -10 -4 -10 -3 0 -8 5 -11 10 -3 6 -1 10 4 10 6 0 11 -4 11 -10z m-112
-30 c22 -17 50 -46 62 -65 20 -32 20 -36 5 -64 -8 -17 -26 -38 -39 -46 -22
-14 -28 -14 -80 5 -54 21 -66 32 -46 45 5 3 -2 17 -18 30 -15 14 -22 25 -16
25 6 0 17 -7 24 -15 18 -21 36 -19 54 7 24 34 20 38 -33 38 -31 0 -53 5 -61
15 -8 9 -9 15 -2 15 6 0 14 -4 17 -10 10 -16 101 -12 114 4 19 22 -20 38 -77
32 -36 -4 -40 -3 -17 3 52 15 70 12 113 -19z m1032 15 c0 -8 -7 -15 -15 -15
-8 0 -15 7 -15 15 0 8 7 15 15 15 8 0 15 -7 15 -15z m846 -3 c16 -14 20 -26
16 -51 -5 -39 -23 -48 -54 -27 -18 13 -19 16 -5 16 9 0 17 -5 17 -11 0 -6 6
-9 13 -6 6 2 11 10 9 17 -1 7 2 18 7 24 7 9 4 17 -9 29 -24 20 -30 21 -30 4 0
-7 -9 -20 -20 -30 -12 -10 -18 -22 -15 -27 3 -6 1 -10 -4 -10 -19 0 -12 29 9
42 11 7 20 21 20 30 0 23 19 22 46 0z m450 -30 c0 -39 -3 -44 -33 -59 -47 -22
-59 -14 -58 43 0 44 2 49 22 49 12 0 25 4 29 8 5 4 15 6 24 5 10 -2 15 -16 16
-46z m-2481 29 c3 -5 1 -12 -5 -16 -5 -3 -10 -24 -10 -46 0 -29 7 -47 25 -64
13 -14 20 -25 15 -25 -24 0 -50 45 -50 86 0 23 -3 49 -6 58 -7 17 20 23 31 7z
m2344 -48 c5 -10 8 -34 7 -53 -2 -34 -3 -35 -45 -36 -30 0 -45 4 -49 15 -3 8
0 17 6 19 7 2 13 18 13 35 1 25 3 27 6 9 3 -13 2 -31 -2 -40 -9 -24 -9 -24 28
-27 33 -2 34 -1 32 34 -3 50 -3 50 -27 44 -19 -4 -20 -3 -8 6 21 15 28 14 39
-6z m-2959 -13 c0 -5 -4 -10 -10 -10 -5 0 -10 5 -10 10 0 6 5 10 10 10 6 0 10
-4 10 -10z m1318 -18 c2 -7 -6 -11 -20 -10 -34 4 -35 -30 -2 -77 46 -68 55
-98 38 -123 -21 -30 -59 -28 -80 3 -15 23 -12 45 7 45 5 0 9 -6 9 -14 0 -22
29 -41 42 -28 15 15 3 55 -27 90 -43 51 -55 83 -43 106 6 12 16 24 21 28 13 8
50 -5 55 -20z m1152 3 c0 -3 -9 -23 -20 -44 -10 -21 -16 -41 -13 -45 4 -3 2
-16 -4 -29 -6 -12 -19 -44 -28 -72 -10 -27 -29 -70 -43 -95 -33 -60 -103 -152
-110 -145 -13 13 -9 35 11 52 11 10 17 12 12 4 -5 -10 -4 -12 3 -7 7 4 12 14
12 22 0 8 4 13 9 10 5 -3 14 0 20 7 8 10 -2 21 -43 48 l-53 35 -18 -30 c-28
-50 -35 -75 -23 -82 7 -4 8 -3 4 4 -10 16 5 14 28 -3 10 -8 24 -11 30 -8 6 4
5 -1 -3 -10 -7 -9 -10 -17 -6 -17 5 0 6 -3 3 -6 -4 -3 -25 7 -47 22 l-41 27
26 46 c53 91 194 261 218 261 4 0 19 14 33 30 22 27 43 39 43 25z m-1590 -52
c-11 -17 -11 -17 -6 0 3 10 7 26 7 35 1 15 2 15 6 0 2 -10 -1 -25 -7 -35z
m-355 -5 c17 -17 54 -41 83 -54 28 -13 52 -28 52 -33 0 -21 -62 -60 -105 -67
-48 -7 -75 5 -75 35 0 14 2 14 10 1 8 -12 10 -12 10 5 1 18 1 19 11 2 5 -9 7
-22 4 -27 -4 -6 10 -8 37 -5 43 5 90 31 90 50 0 5 -23 22 -52 37 -29 15 -63
37 -76 49 l-24 22 0 -51 c0 -28 -5 -54 -12 -58 -8 -5 -9 6 -5 41 4 26 7 56 7
66 0 26 10 23 45 -13z m1363 -21 c4 -55 -9 -77 -44 -77 -36 0 -51 39 -35 91
11 37 15 40 44 37 31 -3 32 -5 35 -51z m-689 -22 c-1 -35 2 -69 6 -75 3 -5 -1
-10 -9 -10 -9 0 -16 5 -16 12 0 9 -3 9 -12 0 -18 -18 -56 -14 -68 7 -15 29
-12 83 6 109 11 16 25 22 54 22 l39 0 0 -65z m-749 3 c0 -33 -4 -48 -9 -42 -9
8 -4 94 5 94 2 0 4 -23 4 -52z m2140 37 c0 -8 6 -24 12 -35 10 -15 10 -22 1
-31 -14 -14 -43 -5 -43 13 0 9 3 9 12 0 16 -16 28 -15 28 3 0 8 -4 15 -10 15
-5 0 -10 10 -10 23 -1 20 -2 21 -14 5 -7 -10 -19 -18 -26 -18 -10 0 -10 -3 0
-15 8 -9 9 -15 2 -15 -25 0 -23 24 4 46 34 27 44 29 44 9z m-2442 -31 c29 -19
28 -49 -3 -78 -19 -18 -42 -25 -96 -30 -99 -10 -126 17 -77 79 42 53 118 66
176 29z m1620 14 c24 -24 5 -110 -29 -128 -29 -16 -63 23 -55 63 13 64 53 96
84 65z m-1473 -8 c-3 -5 -13 -10 -21 -10 -25 0 -64 -50 -64 -82 0 -32 55 -98
81 -98 18 0 69 98 69 132 0 20 -8 32 -27 42 -16 8 -21 15 -13 15 8 0 22 -5 31
-12 30 -24 30 -48 -2 -116 -45 -96 -55 -99 -111 -41 -45 48 -50 92 -17 134 26
33 91 64 74 36z m2775 -11 c0 -5 -7 -9 -15 -9 -15 0 -20 12 -9 23 8 8 24 -1
24 -14z m-3119 -18 c-30 -30 -39 -26 -11 4 13 14 25 23 28 21 2 -2 -6 -14 -17
-25z m383 -7 c9 -8 16 -20 16 -25 0 -20 -52 -99 -65 -99 -19 0 -55 49 -55 74
0 56 67 88 104 50z m2572 5 c3 -5 16 -9 28 -9 13 0 34 -8 46 -18 l22 -18 -47
-60 c-119 -147 -156 -184 -183 -183 -33 1 -77 17 -50 18 22 1 32 17 17 27 -8
4 -9 3 -5 -4 5 -8 1 -10 -9 -5 -12 4 -13 8 -5 13 9 5 9 9 1 14 -6 4 -16 17
-22 29 -7 13 8 4 36 -23 28 -26 43 -36 36 -23 -6 12 -23 54 -37 95 -49 135
-42 124 -63 102 -10 -10 -35 -32 -55 -48 -20 -16 -36 -35 -36 -43 0 -7 -7 -13
-15 -13 -9 0 -22 -15 -30 -32 l-13 -33 86 -23 c47 -12 88 -25 91 -28 3 -4 -1
-4 -9 -2 -8 2 -52 12 -98 23 -79 19 -83 21 -77 44 6 23 84 121 97 121 3 0 25
16 48 35 23 19 52 35 63 35 12 0 28 4 36 9 17 11 140 11 147 0z m-2026 -44 c0
-8 -7 -15 -15 -15 -16 0 -20 12 -8 23 11 12 23 8 23 -8z m1270 -11 c0 -8 -4
-12 -10 -9 -5 3 -10 10 -10 16 0 5 5 9 10 9 6 0 10 -7 10 -16z m423 -25 c-3
-11 -16 -25 -28 -31 -12 -5 -30 -27 -39 -49 -10 -21 -21 -39 -26 -39 -14 0 27
70 62 105 18 19 34 34 35 34 0 1 -1 -8 -4 -20z m517 11 c0 -5 -5 -10 -11 -10
-5 0 -7 5 -4 10 3 6 8 10 11 10 2 0 4 -4 4 -10z m-2340 -45 c-7 -9 -19 -14
-27 -11 -8 3 -11 2 -8 -4 7 -12 -26 -29 -44 -22 -8 3 -11 0 -7 -6 3 -6 2 -13
-4 -17 -5 -3 -10 -22 -10 -42 0 -28 -8 -43 -36 -69 -46 -44 -85 -54 -154 -38
-48 11 -58 10 -91 -6 -27 -14 -38 -27 -43 -50 -14 -73 -108 -125 -183 -102
-27 8 -40 7 -63 -6 -17 -9 -30 -25 -30 -35 0 -24 -44 -67 -69 -67 -11 0 -26 7
-35 15 -8 8 -19 15 -25 15 -14 0 -14 17 0 25 6 4 17 -2 25 -14 28 -40 92 -13
80 34 -5 18 0 25 24 35 44 18 51 32 35 63 -13 26 -5 45 14 32 5 -3 13 -1 16 5
4 6 21 8 40 4 32 -6 35 -4 52 32 10 22 28 43 40 49 16 7 21 15 17 27 -7 23 15
23 23 1 4 -10 16 -25 27 -35 18 -14 24 -14 47 -2 21 10 25 19 22 39 -3 14 -12
25 -20 25 -19 0 -11 25 8 25 8 0 19 4 26 8 7 4 34 5 60 2 46 -6 49 -5 65 24 9
17 25 31 35 31 15 0 14 -2 -5 -16 -12 -8 -20 -19 -17 -24 6 -10 -44 -52 -55
-45 -5 3 -11 1 -15 -5 -4 -6 -13 -7 -23 -2 -45 22 -66 -8 -35 -47 15 -18 32
-24 86 -28 l67 -6 40 40 c47 48 54 91 18 115 -14 10 -19 20 -15 32 4 9 11 15
16 11 6 -3 8 -12 5 -19 -3 -7 2 -16 11 -20 9 -3 13 -2 10 4 -6 10 79 59 104
60 11 0 11 -3 1 -15z m-387 -37 c-10 -17 -25 -34 -33 -36 -11 -4 -11 -1 2 11
9 10 20 26 23 37 3 11 11 20 17 20 5 0 2 -14 -9 -32z m1567 2 c-43 -7 -42 -7
22 -8 56 -2 68 -5 73 -21 15 -48 -47 -104 -78 -71 -7 7 -7 10 -1 7 6 -3 18 3
27 14 14 16 14 19 2 19 -8 0 -15 5 -15 11 0 5 -5 7 -12 3 -9 -6 -9 -9 0 -12 9
-3 8 -8 -3 -18 -8 -8 -12 -21 -9 -28 7 -19 -177 -31 -214 -14 -35 17 -42 66
-14 91 20 18 129 35 222 34 l45 0 -45 -7z m215 0 c3 -5 1 -10 -4 -10 -6 0 -11
5 -11 10 0 6 2 10 4 10 3 0 8 -4 11 -10z m925 -3 c0 -7 6 -19 13 -25 6 -7 13
-43 15 -80 5 -151 3 -171 -29 -194 l-26 -20 -68 41 c-78 48 -133 91 -134 107
-1 17 48 67 128 128 73 56 101 68 101 43z m-1965 -7 c3 -5 1 -10 -4 -10 -6 0
-11 5 -11 10 0 6 2 10 4 10 3 0 8 -4 11 -10z m-1005 -17 c35 -24 49 -44 50
-71 0 -25 -32 -42 -80 -42 -16 0 -40 -5 -54 -11 -67 -31 -77 71 -12 123 27 22
65 23 96 1z m89 -62 c0 -10 -4 -7 -10 8 -5 14 -13 30 -17 36 -4 6 1 2 11 -8 9
-11 17 -27 16 -36z m630 41 c-15 -9 -38 -25 -53 -36 -21 -15 -29 -16 -41 -6
-8 7 -15 19 -15 27 0 11 6 8 19 -8 l18 -23 26 26 c26 26 42 36 62 37 6 1 -2
-7 -16 -17z m68 -14 c31 -29 30 -85 -2 -146 -14 -26 -25 -54 -25 -63 0 -29 37
-63 82 -75 35 -10 38 -12 15 -13 -35 -1 -83 23 -97 48 -15 30 -12 54 15 113
32 68 32 102 0 133 -30 31 -20 33 12 3z m363 -5 c-8 -2 -22 -7 -30 -10 -8 -3
-19 -7 -25 -8 -5 -1 -12 -3 -15 -4 -3 -2 -18 -5 -34 -7 -16 -3 -36 -13 -44
-22 -9 -11 -11 -12 -6 -2 4 8 -3 5 -16 -8 -12 -13 -20 -25 -18 -28 3 -2 23 -5
46 -6 34 -1 45 4 62 25 17 21 26 25 55 20 44 -7 72 12 53 36 -12 14 -11 14 5
2 22 -17 22 -65 0 -87 -22 -22 -110 -61 -158 -70 -32 -6 -40 -3 -54 15 -17 22
-18 22 -64 6 -46 -15 -67 -14 -67 5 0 5 24 17 54 26 48 15 54 20 53 43 -2 24
4 28 78 53 44 14 94 26 110 26 17 0 23 -2 15 -5z m269 -89 c29 -56 21 -66 -54
-72 -60 -5 -64 -1 -40 44 8 16 15 23 15 16 0 -7 -5 -22 -10 -33 -10 -17 -7
-19 22 -19 18 0 43 3 55 6 22 6 22 7 7 42 -8 20 -22 45 -32 55 -16 18 -17 18
-29 -10 -14 -31 -16 -21 -7 26 l7 32 22 -21 c12 -11 32 -41 44 -66z m921 66
c0 -5 -4 -10 -10 -10 -5 0 -10 5 -10 10 0 6 5 10 10 10 6 0 10 -4 10 -10z
m-1851 -16 c-23 -28 -100 -60 -84 -34 3 6 14 10 23 10 9 0 28 9 42 20 30 24
37 25 19 4z m239 -9 c-2 -6 -9 -9 -16 -8 -7 0 -11 -1 -8 -5 3 -3 -2 -11 -12
-18 -9 -7 -17 -21 -17 -31 0 -13 -6 -17 -23 -15 -20 3 -22 1 -13 -16 8 -15 6
-24 -13 -41 -29 -27 -40 -27 -70 4 -41 41 -42 67 -6 89 31 18 32 18 58 -5 l26
-24 -17 28 c-16 24 -16 28 -2 33 8 4 21 1 28 -4 9 -8 21 -6 42 8 31 20 49 22
43 5z m1522 2 c0 -2 -14 -16 -32 -33 l-32 -29 25 32 c20 27 39 41 39 30z m278
-40 c46 -12 79 -23 74 -25 -5 -1 -44 7 -87 18 -58 15 -80 18 -85 9 -6 -8 -9
-8 -13 2 -3 8 -5 -4 -5 -26 1 -22 9 -57 20 -77 10 -21 15 -38 12 -38 -4 0 0
-8 9 -17 8 -10 17 -29 19 -42 2 -15 15 -30 35 -41 18 -9 30 -19 27 -22 -2 -3
2 -11 11 -18 35 -29 65 18 90 139 17 78 10 90 -49 93 l-41 1 43 4 c23 2 40 8
37 13 -3 4 4 6 15 3 25 -7 26 -42 5 -132 -35 -146 -67 -169 -140 -100 -24 24
-45 49 -45 54 0 6 -8 22 -17 35 -32 45 -56 174 -36 194 4 3 14 4 22 1 9 -4 53
-16 99 -28z m-1063 -8 c9 -17 14 -33 11 -36 -3 -3 -10 7 -16 22 -6 15 -13 32
-16 36 -3 5 -3 9 0 9 3 0 13 -14 21 -31z m540 11 c3 -5 1 -10 -4 -10 -6 0 -11
5 -11 10 0 6 2 10 4 10 3 0 8 -4 11 -10z m-805 -45 c-13 -14 -31 -25 -39 -25
-10 1 -6 6 10 15 15 8 30 22 33 31 4 9 9 14 13 10 4 -3 -4 -17 -17 -31z m690
25 c0 -5 -5 -10 -10 -10 -7 0 -7 -6 -1 -19 6 -10 7 -22 3 -26 -4 -4 3 -4 15
-1 43 13 58 -62 22 -108 -11 -14 -77 -60 -147 -101 -95 -57 -134 -75 -163 -75
-41 0 -54 11 -62 57 -4 22 -1 37 11 50 9 10 14 14 10 9 -15 -19 -8 -29 10 -14
34 30 46 30 15 0 -33 -30 -43 -65 -23 -77 24 -15 59 -14 74 1 12 11 16 12 16
2 0 -7 11 -1 24 14 13 15 27 24 30 21 3 -4 6 -1 6 6 0 7 5 9 10 6 6 -3 10 -1
10 6 0 7 3 9 7 6 3 -4 12 -2 20 4 7 6 13 8 13 3 0 -5 5 -2 10 6 5 8 13 15 17
15 26 2 52 18 56 36 3 11 9 19 14 18 23 -4 33 4 42 38 7 24 7 41 1 48 -13 16
-57 7 -102 -21 -71 -45 -183 -100 -207 -101 -13 -1 -37 5 -52 13 -35 18 -81
63 -75 73 3 4 35 7 71 6 59 -1 65 1 59 17 -4 12 0 18 11 18 9 0 13 5 10 10 -3
6 -3 10 2 11 4 0 22 2 38 4 17 2 22 1 13 -2 -15 -4 -16 -8 -7 -26 9 -16 9 -22
0 -25 -19 -6 -1 -22 26 -22 23 0 25 3 20 33 l-6 32 14 -30 c10 -20 14 -24 15
-12 0 10 5 15 10 12 6 -3 10 0 9 7 -1 29 -15 45 -37 43 -12 -1 -21 3 -19 8 2
6 21 12 42 14 22 2 49 7 60 12 47 22 75 26 75 11z m-520 -20 c0 -5 -2 -10 -4
-10 -3 0 -8 5 -11 10 -3 6 -1 10 4 10 6 0 11 -4 11 -10z m908 -13 c2 -10 -3
-17 -12 -17 -18 0 -29 16 -21 31 9 14 29 6 33 -14z m-2408 -18 c0 -5 -7 -9
-15 -9 -15 0 -20 12 -9 23 8 8 24 -1 24 -14z m678 -48 c2 -20 -1 -22 -24 -17
-18 5 -24 3 -19 -4 8 -13 -42 -70 -61 -70 -6 0 -17 7 -24 15 -7 9 -19 14 -27
11 -8 -3 -16 1 -19 9 -4 8 -10 15 -15 15 -11 0 16 -56 32 -66 8 -4 9 0 4 15
-3 11 -3 21 2 21 5 0 10 -12 11 -26 2 -23 -1 -25 -22 -20 -19 5 -23 2 -20 -12
6 -24 -71 -78 -90 -63 -18 15 -46 3 -46 -20 0 -49 -76 -78 -103 -39 -8 11 -17
17 -20 13 -4 -3 -7 -1 -7 5 0 20 16 21 33 1 9 -10 23 -19 30 -19 18 0 44 29
49 55 2 11 11 20 19 19 16 -1 23 32 8 41 -17 11 -9 25 32 52 34 22 44 25 60
15 18 -11 19 -10 13 13 -5 19 -2 25 9 25 9 0 19 -4 22 -10 3 -5 11 -10 18 -10
8 0 8 3 -1 12 -22 22 -13 44 25 62 34 16 38 16 49 1 13 -17 30 -3 19 15 -3 6
-3 15 0 20 10 16 61 -32 63 -59z m1558 57 c9 -15 -27 -41 -39 -29 -13 13 -1
41 17 41 8 0 18 -5 22 -12z m-1743 -5 c-7 -2 -19 -2 -25 0 -7 3 -2 5 12 5 14
0 19 -2 13 -5z m2272 -3 c7 -11 -25 -64 -33 -55 -3 3 3 14 13 25 22 24 14 36
-13 21 -30 -16 -40 -13 -18 4 23 17 42 19 51 5z m128 -50 c76 -54 150 -115
160 -132 15 -23 -6 -66 -39 -78 -14 -6 -32 -16 -40 -24 -20 -20 -116 -17 -121
4 -4 13 -3 13 6 0 6 -8 11 -10 11 -4 0 11 35 12 46 1 12 -12 26 -8 18 5 -5 9
-2 9 9 -1 15 -12 17 -11 17 3 0 9 6 15 13 13 6 -1 11 3 10 9 -2 8 6 10 20 6
20 -5 21 -4 8 11 -12 15 -11 17 10 15 27 -3 35 19 16 42 -26 32 -117 101 -126
95 -5 -3 -13 0 -17 6 -5 8 -3 9 6 4 9 -5 11 -4 6 4 -16 25 -25 -2 -10 -32 12
-26 12 -29 0 -14 -11 14 -15 15 -19 5 -2 -7 -3 -5 -2 5 2 9 -1 17 -5 17 -5 0
-10 8 -12 18 -2 9 -2 -30 0 -88 2 -58 2 -103 -1 -100 -7 8 -19 240 -12 240 4
0 25 -13 48 -30z m-797 -53 c-9 -18 -14 -24 -11 -14 3 10 5 35 6 55 0 34 1 35
11 14 9 -18 8 -30 -6 -55z m335 22 c9 -5 19 -21 22 -36 3 -16 8 -38 12 -50 6
-18 -2 -31 -40 -69 -42 -41 -51 -45 -79 -39 -35 8 -38 8 -83 -1 -28 -5 -33 -3
-47 25 -17 32 -30 39 -41 21 -4 -6 1 -7 12 -4 10 3 5 -3 -12 -15 -34 -23 -60
-29 -29 -6 24 18 7 19 -25 1 -13 -7 -33 -12 -45 -10 -12 3 -15 2 -8 -2 6 -3
12 -14 12 -25 0 -26 14 -24 29 3 11 23 11 23 5 -2 -3 -14 -10 -29 -15 -34 -11
-12 -41 13 -33 26 4 6 1 14 -6 18 -7 4 -10 15 -7 25 5 12 11 14 24 6 13 -7 30
-3 63 14 43 22 46 26 42 55 -5 32 20 72 42 68 6 -2 23 10 39 25 26 27 30 28
90 21 34 -4 69 -10 78 -15z m-1161 1 c0 -5 -4 -10 -10 -10 -5 0 -10 5 -10 10
0 6 5 10 10 10 6 0 10 -4 10 -10z m220 -10 c0 -5 -2 -10 -4 -10 -3 0 -8 5 -11
10 -3 6 -1 10 4 10 6 0 11 -4 11 -10z m-678 -37 c36 -18 48 -42 48 -98 0 -66
-31 -95 -100 -95 -44 0 -56 5 -81 29 -23 23 -29 38 -29 71 0 52 13 76 53 100
33 20 59 19 109 -7z m441 2 c35 -2 93 -11 131 -19 37 -9 79 -16 94 -16 51 0
56 -11 37 -79 -10 -34 -21 -64 -25 -66 -9 -6 -161 21 -209 36 -55 17 -101 48
-95 63 4 11 14 9 44 -8 23 -12 34 -24 28 -28 -18 -10 133 -47 194 -48 35 0 38
2 48 40 6 23 8 50 5 61 -7 20 -8 20 -26 3 -17 -16 -19 -16 -14 -1 5 11 1 16
-12 16 -10 0 -46 7 -81 16 -34 8 -78 14 -97 12 -19 -3 -35 0 -35 6 0 5 -7 4
-15 -3 -12 -10 -15 -10 -15 0 0 10 -3 10 -15 0 -8 -7 -15 -24 -15 -39 0 -14
-4 -32 -9 -40 -11 -18 -31 -5 -31 19 0 15 -11 23 -45 31 -25 6 -48 15 -51 20
-6 11 8 11 70 3 46 -7 47 -7 40 -38 -4 -20 -3 -28 4 -21 14 15 23 75 11 75 -6
0 -7 5 -4 10 4 6 11 8 16 5 5 -4 37 -8 72 -10z m-343 -28 c13 -9 20 -17 14
-17 -16 0 -54 30 -54 43 0 8 3 9 8 1 4 -5 18 -18 32 -27z m-692 2 c-16 -11
-48 -12 -48 -1 0 4 14 7 31 8 20 1 26 -2 17 -7z m2907 -9 c3 -5 1 -10 -4 -10
-6 0 -11 5 -11 10 0 6 2 10 4 10 3 0 8 -4 11 -10z m-1748 -14 c3 -2 -1 -23 -7
-46 -11 -40 -13 -42 -42 -36 -18 3 -33 7 -34 9 -1 1 3 22 9 45 11 41 13 43 41
38 16 -4 31 -8 33 -10z m-759 -42 c1 -21 -2 -33 -8 -29 -15 9 -11 65 4 65 1 0
2 -16 4 -36z m1018 -8 c0 -15 -5 -21 -10 -16 -5 5 -6 16 -3 24 9 23 15 19 13
-8z m824 -37 c-28 -27 -37 -33 -29 -17 16 30 63 75 67 65 2 -4 -15 -26 -38
-48z m-2314 40 c10 -17 -13 -36 -27 -22 -12 12 -4 33 11 33 5 0 12 -5 16 -11z
m871 -15 c-9 -9 -28 6 -21 18 4 6 10 6 17 -1 6 -6 8 -13 4 -17z m-517 -3 c0
-5 -12 -17 -27 -26 l-28 -18 24 27 c26 28 31 31 31 17z m407 -23 c-3 -7 -5 -2
-5 12 0 14 2 19 5 13 2 -7 2 -19 0 -25z m683 -8 c0 -5 -4 -10 -10 -10 -5 0
-10 5 -10 10 0 6 5 10 10 10 6 0 10 -4 10 -10z m340 -6 c0 -14 -3 -14 -15 -4
-8 7 -15 14 -15 16 0 2 7 4 15 4 8 0 15 -7 15 -16z m790 -5 c0 -5 -4 -9 -10
-9 -5 0 -10 7 -10 16 0 8 5 12 10 9 6 -3 10 -10 10 -16z m380 -4 c0 -8 -7 -15
-15 -15 -8 0 -15 7 -15 15 0 8 7 15 15 15 8 0 15 -7 15 -15z"/>
<path d="M1244 1383 l-29 -28 50 -7 c86 -11 135 -9 135 5 0 15 -31 47 -46 47
-5 0 0 -8 11 -17 l20 -16 -20 8 c-11 4 -29 10 -39 13 -20 5 -20 5 0 13 14 6
10 8 -17 8 -26 1 -44 -6 -65 -26z"/>
<path d="M1253 1333 c9 -2 23 -2 30 0 6 3 -1 5 -18 5 -16 0 -22 -2 -12 -5z"/>
<path d="M1363 1323 c9 -2 25 -2 35 0 9 3 1 5 -18 5 -19 0 -27 -2 -17 -5z"/>
<path d="M1230 1228 c0 -51 3 -109 6 -129 6 -35 7 -36 57 -38 28 -1 48 1 44 5
-4 4 0 15 9 25 9 10 18 35 21 56 3 26 1 34 -6 24 -5 -8 -8 -23 -6 -33 2 -10 0
-16 -6 -13 -5 4 -7 10 -4 15 3 4 -12 6 -34 3 -32 -4 -41 -2 -55 18 -25 36 -21
84 10 108 50 39 89 23 105 -42 l8 -32 -1 40 c0 22 3 47 6 56 6 13 -1 18 -31
22 -21 4 -57 7 -80 7 l-43 0 0 -92z"/>
<path d="M1273 1265 c-43 -30 -19 -115 32 -115 37 0 61 42 49 88 -7 29 -14 38
-34 40 -14 1 -35 -4 -47 -13z m55 -22 c16 -16 -4 -63 -28 -63 -22 0 -44 48
-30 65 13 15 40 14 58 -2z"/>
<path d="M1276 1231 c-3 -4 1 -17 9 -27 13 -16 16 -17 25 -4 5 8 10 21 10 28
0 13 -36 17 -44 3z"/>
<path d="M350 1448 c0 -5 -4 -7 -9 -3 -5 3 -12 1 -16 -5 -4 -6 14 -10 48 -10
30 0 74 -7 97 -15 50 -18 50 -18 50 -5 0 10 -46 24 -124 39 -28 5 -46 5 -46
-1z"/>
<path d="M236 1419 c-6 -9 -22 -22 -36 -29 -30 -15 -60 -45 -60 -59 0 -5 -10
-17 -22 -25 -12 -9 -18 -16 -13 -16 5 0 4 -5 -3 -12 -7 -7 -12 -19 -12 -27 0
-9 13 5 29 30 37 58 104 116 153 131 21 6 38 14 38 18 0 14 -62 5 -74 -11z"/>
<path d="M284 1402 c-6 -4 -16 -16 -22 -27 -6 -11 -12 -14 -12 -7 0 7 -5 10
-10 7 -6 -4 -8 -11 -4 -16 3 -5 0 -8 -7 -7 -19 5 -22 -21 -3 -29 19 -7 58 32
48 48 -3 5 0 9 5 9 16 0 13 -22 -5 -48 -20 -29 -62 -29 -72 -1 -7 19 -9 19
-21 5 -12 -14 -11 -19 2 -34 11 -12 14 -26 9 -42 -6 -23 -7 -23 -12 9 -7 45
-25 50 -44 12 -21 -41 -21 -44 16 -65 30 -19 31 -19 46 0 14 18 14 18 8 -2 -6
-18 -1 -24 26 -33 20 -7 34 -8 36 -2 2 5 14 22 28 38 25 29 32 91 18 162 -7
32 -11 36 -30 23z m-37 -124 c0 -7 1 -22 2 -33 1 -18 2 -19 12 -2 5 9 17 17
26 17 13 0 13 3 3 15 -11 13 -10 14 4 9 22 -8 20 -34 -3 -34 -10 0 -21 -9 -24
-20 -6 -25 -27 -27 -27 -2 0 9 -3 27 -6 40 -4 12 -2 22 4 22 5 0 10 -6 9 -12z"/>
<path d="M325 1398 c2 -7 6 -47 10 -87 3 -41 8 -79 11 -83 15 -23 53 -3 103
54 49 54 53 62 38 73 -9 7 -17 19 -17 28 0 21 -21 27 -91 27 -42 0 -57 -3 -54
-12z m131 -22 c8 -21 -15 -58 -33 -54 -26 5 -39 34 -24 52 17 20 50 21 57 2z
m-49 -101 c-1 -19 -4 -35 -8 -35 -4 0 -6 14 -5 30 1 17 -1 30 -6 30 -4 0 -8
-6 -8 -14 0 -8 -6 -17 -12 -19 -10 -4 -9 -8 2 -16 11 -8 11 -11 2 -11 -21 0
-24 27 -5 49 26 31 41 26 40 -14z"/>
<path d="M417 1373 c-4 -3 -7 -15 -7 -25 0 -22 26 -24 34 -2 10 25 -10 45 -27
27z"/>
<path d="M530 1400 c0 -5 5 -10 11 -10 5 0 7 5 4 10 -3 6 -8 10 -11 10 -2 0
-4 -4 -4 -10z"/>
<path d="M480 1390 c0 -17 33 -41 42 -32 6 6 8 15 4 20 -8 13 -46 23 -46 12z"/>
<path d="M88 1205 c-8 -44 -3 -135 11 -170 21 -53 34 -74 43 -69 5 4 5 11 0
17 -20 26 -35 87 -41 167 -5 59 -8 76 -13 55z"/>
<path d="M112 1149 c3 -39 10 -74 15 -78 6 -3 9 -14 7 -24 -1 -11 0 -17 2 -14
3 3 17 -1 31 -8 40 -21 83 11 83 61 0 17 -1 17 -13 0 -26 -36 -84 4 -61 42 17
26 56 22 71 -8 10 -21 13 -22 18 -7 11 26 1 40 -35 52 -30 10 -35 9 -57 -13
-15 -15 -23 -32 -20 -43 3 -11 1 -22 -4 -25 -19 -11 -8 57 12 77 l21 21 -31
19 c-17 10 -34 19 -38 19 -3 0 -3 -32 -1 -71z m98 -109 c0 -5 -2 -10 -4 -10
-3 0 -8 5 -11 10 -3 6 -1 10 4 10 6 0 11 -4 11 -10z"/>
<path d="M294 1199 c-16 -17 -16 -22 -4 -29 26 -16 40 -11 40 14 0 34 -14 40
-36 15z"/>
<path d="M274 1115 c-11 -35 -11 -35 8 -18 11 10 24 26 29 35 8 14 6 18 -8 18
-12 0 -22 -12 -29 -35z"/>
<path d="M184 1125 c-8 -21 2 -45 19 -45 21 0 38 25 31 44 -8 20 -43 21 -50 1z"/>
<path d="M350 1135 c0 -2 8 -20 17 -40 19 -39 46 -46 63 -15 8 15 6 21 -9 30
-29 15 -71 30 -71 25z"/>
<path d="M303 1101 c-21 -27 -21 -41 -1 -41 5 0 6 5 3 10 -3 6 -1 10 5 10 7 0
9 -8 5 -20 -8 -26 21 -38 41 -18 13 13 13 19 -2 51 -10 21 -20 37 -23 36 -3 0
-16 -13 -28 -28z"/>
<path d="M432 1070 c-7 -11 -19 -20 -27 -20 -18 0 -18 -5 0 -55 8 -22 14 -57
15 -77 0 -21 3 -38 8 -39 4 0 15 -2 25 -4 9 -2 17 1 17 5 0 9 40 25 53 22 5
-1 6 2 2 8 -3 5 0 10 8 10 8 0 18 7 21 16 9 25 6 30 -7 13 -13 -18 -104 -55
-113 -46 -3 3 4 8 15 12 12 3 21 12 21 20 0 7 11 20 25 29 14 9 25 24 25 33 0
9 7 24 16 34 15 16 13 19 -25 38 -50 26 -63 26 -79 1z m59 -48 c-4 -9 -6 -22
-4 -28 5 -14 -22 -25 -42 -18 -15 6 -21 45 -9 57 9 9 35 -4 28 -14 -3 -5 -10
-7 -15 -4 -5 4 -9 -1 -9 -9 0 -20 30 -21 31 -1 1 8 3 20 4 25 1 6 3 13 4 16 0
3 6 2 11 -1 6 -4 7 -13 1 -23z"/>
<path d="M553 1032 c-6 -4 -14 -19 -18 -34 -4 -15 -18 -34 -32 -43 -14 -9 -22
-19 -19 -22 8 -9 82 45 100 72 20 30 1 47 -31 27z"/>
<path d="M601 1008 c-8 -13 -13 -25 -12 -27 2 -2 -3 -8 -11 -13 -11 -8 -11 -9
0 -6 8 2 13 7 12 11 0 4 6 15 15 23 8 9 15 20 15 25 0 14 -4 11 -19 -13z"/>
<path d="M277 974 c-4 -4 -7 -16 -7 -26 0 -15 6 -19 28 -16 19 2 27 9 27 23 0
20 -33 33 -48 19z"/>
<path d="M2633 1430 c-25 -10 -30 -25 -13 -35 6 -4 8 -15 5 -25 -9 -30 10 -32
40 -4 25 23 26 28 15 50 -15 26 -15 27 -47 14z"/>
<path d="M2746 1431 c-3 -5 -15 -7 -26 -4 -27 7 -26 -20 2 -59 21 -30 21 -30
37 -10 9 11 27 22 41 24 34 4 32 32 -2 36 -16 2 -28 8 -28 13 0 12 -17 12 -24
0z"/>
<path d="M2863 1402 c-17 -11 -6 -44 23 -65 29 -21 44 -15 40 16 -3 30 -15 49
-27 42 -5 -4 -9 -1 -9 4 0 13 -10 14 -27 3z"/>
<path d="M2800 1373 c-15 -2 -30 -15 -37 -30 -17 -35 -16 -44 1 -37 20 8 53
-11 37 -20 -6 -4 -11 -2 -11 3 0 6 -7 11 -15 11 -8 0 -15 -5 -15 -11 0 -8 -5
-8 -15 1 -12 10 -16 9 -21 -5 -8 -21 9 -51 27 -47 7 2 15 -2 19 -9 6 -8 15 -7
33 7 30 22 43 47 28 52 -6 2 -11 8 -11 13 0 6 8 5 20 -1 11 -6 25 -8 30 -5 16
10 12 45 -5 45 -8 0 -15 9 -15 20 0 11 -6 19 -12 19 -7 -1 -24 -4 -38 -6z"/>
<path d="M2674 1355 c-4 -8 -12 -15 -20 -15 -18 0 -18 -14 1 -30 8 -7 15 -21
15 -31 0 -26 12 -24 43 9 32 34 33 42 7 65 -25 21 -39 22 -46 2z"/>
<path d="M2859 1267 c-133 -100 -195 -154 -187 -162 4 -4 58 31 120 77 62 46
127 94 144 106 26 18 43 53 25 52 -3 -1 -49 -33 -102 -73z"/>
<path d="M2627 1293 c-4 -3 -2 -12 5 -20 8 -10 8 -17 1 -24 -7 -7 -6 -20 4
-40 14 -29 33 -31 33 -4 0 8 9 19 20 25 26 14 26 33 0 25 -15 -5 -22 0 -30 19
-9 26 -21 32 -33 19z"/>
<path d="M2697 1223 c-10 -3 -16 -11 -14 -18 3 -7 0 -18 -6 -24 -8 -8 -8 -14
0 -22 8 -8 21 -4 47 16 20 15 36 33 36 39 0 12 -32 17 -63 9z"/>
<path d="M817 1424 c-10 -10 15 -52 34 -57 11 -3 19 -12 19 -21 0 -9 5 -16 10
-16 9 0 14 14 11 33 -1 4 6 18 14 30 15 21 15 21 9 -13 -4 -19 -11 -39 -15
-44 -14 -16 -10 -30 12 -44 12 -8 18 -9 14 -3 -3 6 -2 11 4 11 14 0 11 117 -3
117 -6 0 -32 3 -57 7 -25 3 -49 3 -52 0z"/>
<path d="M768 1356 c-31 -48 -38 -76 -14 -57 12 10 14 9 10 -6 -3 -12 5 -23
26 -35 28 -16 34 -16 70 -2 22 9 40 20 40 25 0 13 -4 12 -47 -12 -37 -20 -37
-20 -15 -1 12 11 28 23 35 26 9 3 8 8 -4 18 -9 7 -14 19 -12 25 8 22 -26 27
-47 8 -24 -22 -27 -9 -4 16 15 16 12 39 -4 39 -4 0 -19 -20 -34 -44z m47 -66
c-10 -11 -23 -20 -29 -20 -6 0 0 9 14 20 32 25 38 25 15 0z"/>
<path d="M2326 1422 c-11 -10 -6 -19 18 -30 19 -8 24 -18 24 -46 0 -32 -2 -35
-19 -25 -13 7 -25 6 -40 -2 -17 -9 -20 -8 -14 2 5 8 4 10 -4 5 -6 -4 -9 -12
-6 -17 8 -12 45 -12 45 1 0 7 7 7 20 0 34 -18 59 -4 58 33 0 18 -5 38 -10 44
-14 17 -65 42 -72 35z"/>
<path d="M2230 1400 c0 -5 5 -20 11 -34 10 -21 6 -37 -26 -111 -36 -85 -37
-100 -5 -106 3 0 13 -2 23 -4 12 -2 26 12 47 48 33 57 37 72 18 62 -7 -4 -5 0
4 7 15 13 14 16 -17 32 -46 25 -37 44 32 61 6 2 14 -3 17 -11 3 -8 11 -14 18
-14 9 0 8 3 -2 10 -11 7 -12 10 -2 10 8 0 12 6 9 13 -2 6 -10 11 -16 10 -6 -2
-11 2 -11 7 0 6 -7 10 -15 10 -8 0 -15 3 -15 8 0 4 -16 8 -35 9 -19 1 -35 -2
-35 -7z m3 -165 c-15 -30 -29 -53 -31 -51 -4 5 46 106 53 106 3 0 -7 -25 -22
-55z m23 -63 c-18 -16 -18 -16 -6 6 6 13 14 21 18 18 3 -4 -2 -14 -12 -24z"/>
<path d="M2300 1340 c0 -5 5 -10 11 -10 5 0 7 5 4 10 -3 6 -8 10 -11 10 -2 0
-4 -4 -4 -10z"/>
<path d="M1799 1264 c-38 -28 -45 -38 -41 -59 2 -14 8 -22 13 -19 5 3 13 -5
18 -18 9 -24 61 -78 61 -64 0 5 18 -11 40 -34 22 -23 40 -41 40 -39 0 2 -6 24
-14 49 -14 49 -41 74 -55 52 -6 -11 -9 -9 -13 6 -3 11 -2 26 3 33 8 14 3 29
-11 29 -5 0 -8 -14 -8 -30 1 -33 -11 -56 -13 -24 -1 10 -2 30 -2 44 -1 14 4
31 11 39 11 12 11 15 0 23 -8 5 -3 6 14 2 23 -5 26 -3 21 15 -8 32 -14 31 -64
-5z"/>
<path d="M1842 1224 c2 -11 11 -20 22 -22 13 -3 17 1 14 14 -2 11 -11 20 -22
22 -13 3 -17 -1 -14 -14z"/>
<path d="M1867 1170 c-3 -13 0 -20 9 -20 15 0 19 26 5 34 -5 3 -11 -3 -14 -14z"/>
<path d="M596 1325 c4 -8 8 -15 10 -15 2 0 4 7 4 15 0 8 -4 15 -10 15 -5 0 -7
-7 -4 -15z"/>
<path d="M560 1309 c-7 -11 -10 -21 -8 -22 30 -15 42 -27 49 -45 11 -28 -3
-29 -16 0 -6 11 -20 25 -31 29 -18 6 -28 0 -54 -32 -30 -37 -31 -42 -16 -58 9
-10 16 -23 16 -30 0 -7 24 -23 53 -36 47 -21 53 -22 65 -7 11 14 12 14 12 -4
1 -15 2 -16 9 -4 5 8 8 26 7 40 -1 14 1 35 6 47 4 13 3 25 -2 28 -6 4 -10 19
-10 34 0 16 -7 34 -15 41 -14 11 -14 10 -5 -14 10 -28 14 -114 4 -104 -3 3 -7
27 -9 52 -4 42 -28 106 -40 106 -2 0 -9 -9 -15 -21z m13 -100 c7 -11 5 -21 -9
-37 -20 -24 -34 -28 -34 -11 0 7 -8 17 -17 24 -15 11 -15 15 -3 29 16 20 49
17 63 -5z"/>
<path d="M524 1209 c-3 -6 -2 -14 3 -18 6 -3 13 -13 16 -21 4 -12 6 -12 6 2 1
9 6 18 13 20 15 5 1 28 -17 28 -8 0 -17 -5 -21 -11z"/>
<path d="M455 1179 c-7 -10 10 -28 28 -29 12 0 8 17 -7 29 -11 9 -16 9 -21 0z"/>
<path d="M1023 1251 c-34 -25 -43 -37 -43 -62 0 -16 4 -28 9 -25 4 3 13 -6 19
-19 13 -27 27 -32 35 -12 3 7 6 5 6 -5 1 -10 7 -18 15 -18 21 0 27 58 13 118
l-12 54 -42 -31z"/>
<path d="M1484 1230 c6 -34 49 -97 54 -81 2 5 10 7 18 4 10 -4 12 0 7 13 -4
11 -3 15 5 10 12 -7 35 28 24 38 -3 4 0 11 7 15 9 6 -3 12 -38 20 -80 17 -84
16 -77 -19z"/>
<path d="M840 1120 c-17 -22 -29 -40 -25 -40 3 0 1 -9 -5 -19 -20 -38 -3 -51
75 -55 26 -1 30 3 33 27 4 31 -25 127 -38 127 -5 0 -23 -18 -40 -40z"/>
<path d="M2895 1160 c-3 -5 -3 -15 0 -20 4 -7 -2 -9 -19 -4 -28 7 -36 -12 -14
-34 9 -9 9 -12 -1 -12 -8 0 -11 -10 -9 -27 4 -35 37 -44 45 -13 3 13 11 19 19
16 8 -3 21 -9 29 -12 11 -5 15 1 15 19 0 14 7 28 18 32 16 6 16 7 0 19 -10 7
-15 16 -12 19 3 3 3 11 -1 17 -5 8 -11 8 -21 -1 -11 -9 -17 -9 -28 0 -10 8
-16 9 -21 1z"/>
<path d="M2070 734 c-14 -36 -4 -70 16 -53 16 13 19 65 4 74 -6 3 -15 -6 -20
-21z"/>
<path d="M2420 993 c0 -12 5 -25 10 -28 13 -8 13 15 0 35 -8 12 -10 11 -10 -7z"/>
<path d="M2314 966 c-8 -21 3 -36 27 -36 15 0 20 6 17 22 -4 27 -35 37 -44 14z"/>
<path d="M2256 949 c-35 -28 -33 -37 12 -44 20 -4 44 -9 52 -12 8 -3 20 -7 25
-8 6 0 18 -5 28 -9 26 -12 36 4 25 42 -9 33 -28 44 -28 16 0 -25 -53 -14 -65
14 -12 27 -16 27 -49 1z"/>
<path d="M2239 893 c-7 -45 -6 -94 2 -99 5 -3 7 -10 4 -15 -4 -5 -4 -9 0 -9 3
0 10 10 15 23 l9 22 0 -22 c1 -12 5 -24 10 -28 11 -6 44 101 36 115 -11 17
-32 11 -43 -12 l-11 -23 0 22 c-1 21 -20 43 -22 26z"/>
<path d="M2326 848 c-21 -51 -28 -88 -17 -88 6 0 17 12 26 28 15 26 16 27 10
2 -3 -15 4 -7 19 20 19 35 21 46 10 48 -8 2 -14 8 -14 13 0 21 -22 6 -34 -23z"/>
<path d="M870 869 c-7 -11 -28 -39 -48 -62 -20 -22 -31 -37 -24 -33 7 4 12 2
13 -6 0 -7 4 -4 9 7 8 18 9 18 9 -5 1 -20 3 -22 11 -10 8 12 10 12 11 -5 0
-17 1 -18 7 -3 5 13 11 15 22 8 13 -8 13 -10 1 -10 -13 0 -13 -2 -2 -12 11
-11 14 -10 18 0 3 6 9 10 13 7 13 -8 40 36 40 65 0 16 -11 37 -28 53 -34 32
-38 33 -52 6z m45 -19 c10 -11 13 -20 7 -20 -6 0 -16 9 -22 20 -6 11 -9 20 -7
20 2 0 12 -9 22 -20z"/>
<path d="M3180 920 c-8 -5 -23 -7 -32 -4 -20 6 -25 -15 -7 -33 8 -8 8 -17 0
-32 -13 -24 -5 -26 37 -8 23 9 29 16 22 27 -5 8 -5 21 1 31 11 21 -1 31 -21
19z"/>
<path d="M2540 795 c-7 -9 -8 -15 -2 -15 5 0 12 7 16 15 3 8 4 15 2 15 -2 0
-9 -7 -16 -15z"/>
<path d="M2500 770 c0 -12 40 -34 48 -26 3 4 -3 13 -14 21 -22 17 -34 19 -34
5z"/>
<path d="M2444 708 c-23 -24 -53 -59 -68 -80 l-27 -36 28 -19 c15 -10 40 -24
54 -30 25 -11 27 -9 51 41 l26 52 -40 23 c-22 12 -37 25 -34 28 3 4 15 -2 25
-11 11 -10 25 -15 32 -10 8 4 10 3 5 -4 -5 -8 -2 -10 9 -6 12 5 13 9 4 20 -7
9 -8 14 -1 14 16 0 23 31 11 46 -18 22 -32 17 -75 -28z m26 -82 c8 -3 0 -4
-18 -1 -20 3 -31 1 -27 -5 3 -6 16 -10 28 -10 20 -1 21 -1 4 -11 -13 -7 -22
-7 -31 0 -7 6 -16 8 -20 4 -4 -4 -4 1 0 12 10 26 25 36 39 26 5 -5 17 -11 25
-15z"/>
<path d="M2310 466 c0 -2 7 -7 16 -10 8 -3 12 -2 9 4 -6 10 -25 14 -25 6z"/>
<path d="M1956 785 c-10 -26 -7 -63 5 -71 16 -10 30 16 27 50 -3 33 -22 45
-32 21z"/>
<path d="M1252 778 c-14 -14 -16 -84 -2 -93 10 -6 40 45 40 68 0 23 -24 39
-38 25z"/>
<path d="M154 760 c-25 -10 -78 -74 -64 -78 5 -2 10 -11 10 -19 0 -12 8 -14
38 -9 20 3 49 6 64 6 39 0 82 40 74 68 -4 11 -15 23 -24 26 -32 10 -78 13 -98
6z m87 -20 c47 -26 6 -67 -71 -72 -50 -3 -55 -1 -58 18 -6 45 78 81 129 54z"/>
<path d="M142 720 c-33 -31 -27 -40 27 -40 63 0 108 38 65 54 -31 12 -71 6
-92 -14z"/>
<path d="M1834 726 c-6 -27 3 -66 15 -66 11 0 31 46 31 70 0 30 -38 26 -46 -4z"/>
<path d="M376 708 c-20 -28 -20 -48 0 -76 17 -24 44 -30 44 -8 0 7 7 19 16 26
9 8 14 25 12 44 -2 25 -8 32 -30 34 -18 2 -31 -4 -42 -20z"/>
<path d="M2881 716 c-13 -7 -32 -11 -43 -8 -10 2 -18 3 -18 1 0 -9 70 -190 79
-206 9 -15 11 -12 12 17 0 19 5 46 10 60 6 18 7 10 4 -30 l-4 -55 19 43 c27
59 34 53 9 -9 -11 -29 -18 -53 -16 -56 6 -5 155 190 164 214 6 16 5 17 -12 3
-10 -8 -16 -10 -12 -4 8 13 -19 27 -34 18 -5 -3 -9 0 -9 6 0 7 -7 9 -16 6 -8
-3 -12 -2 -9 4 8 13 -68 8 -77 -5 -5 -6 -8 -5 -8 3 0 15 -9 15 -39 -2z"/>
<path d="M2868 453 c7 -3 16 -2 19 1 4 3 -2 6 -13 5 -11 0 -14 -3 -6 -6z"/>
<path d="M536 512 c-3 -5 1 -9 9 -9 8 0 12 4 9 9 -3 4 -7 8 -9 8 -2 0 -6 -4
-9 -8z"/>
<path d="M355 414 c-8 -9 -13 -24 -10 -34 7 -23 -55 -66 -67 -47 -5 8 -8 8 -8
1 0 -6 -10 -10 -21 -10 -32 1 -34 -20 -5 -49 59 -59 174 -4 192 91 7 40 -8 64
-42 64 -12 0 -30 -7 -39 -16z m46 -82 c-12 -23 -50 -57 -56 -50 -3 3 6 13 20
22 14 9 25 23 25 31 0 8 5 15 10 15 7 0 7 -6 1 -18z"/>
<path d="M478 414 c-38 -20 -36 -28 2 -9 17 9 30 18 30 20 0 7 -1 6 -32 -11z"/>
<path d="M1920 519 c0 -13 -4 -18 -12 -13 -7 4 -8 3 -4 -4 7 -11 31 -7 52 9 6
5 14 6 17 3 3 -4 13 1 22 10 15 15 15 16 -3 13 -11 -2 -27 -9 -36 -16 -14 -11
-16 -11 -16 3 0 9 -4 16 -10 16 -5 0 -10 -9 -10 -21z"/>
<path d="M1849 519 c-8 -5 -8 -9 0 -13 6 -4 11 -1 11 6 0 9 2 10 8 2 5 -9 10
-8 19 1 10 11 9 13 -8 12 -11 -1 -25 -4 -30 -8z"/>
<path d="M2020 520 c-8 -5 -10 -10 -5 -10 6 0 17 5 25 10 8 5 11 10 5 10 -5 0
-17 -5 -25 -10z"/>
<path d="M3095 526 c-111 -84 -128 -115 -67 -118 l37 -1 -33 -4 c-32 -4 -33
-5 -15 -19 16 -12 16 -13 1 -8 -10 3 -18 4 -18 1 0 -5 96 -69 136 -90 30 -16
32 -15 55 10 20 22 21 25 5 19 -16 -5 -17 -4 -6 9 7 8 10 15 6 15 -4 0 0 10 8
23 15 22 12 67 -5 67 -5 0 -6 7 -3 15 4 8 1 15 -6 15 -9 0 -7 8 4 25 12 18 13
25 4 25 -9 0 -8 3 2 10 13 9 7 14 -12 11 -4 0 -5 6 -2 14 4 8 1 15 -6 15 -6 0
-8 5 -5 10 13 22 -13 7 -80 -44z m-54 -81 c-18 -8 -36 -15 -40 -15 -13 1 45
29 59 29 8 0 0 -6 -19 -14z"/>
<path d="M140 547 c-30 -15 -51 -53 -48 -87 3 -27 10 -28 88 -10 25 6 51 12
59 14 25 5 22 43 -5 65 -20 16 -30 18 -54 10 -36 -13 -67 -46 -54 -59 11 -11
94 -1 94 12 0 5 -5 19 -12 31 -10 20 -10 21 6 8 9 -8 16 -24 14 -35 -2 -16
-13 -22 -52 -29 -31 -5 -53 -4 -59 2 -17 17 9 60 46 76 17 8 25 14 17 14 -8 1
-26 -5 -40 -12z"/>
<path d="M1396 461 c-6 -9 -21 -12 -46 -8 -32 4 -41 1 -62 -24 -22 -24 -31
-27 -62 -22 -37 6 -40 3 -30 -34 8 -29 22 -28 108 2 77 27 110 53 104 81 -3
15 -5 16 -12 5z"/>
<path d="M1120 388 c-19 -5 -39 -14 -45 -20 -11 -12 21 -4 70 17 36 16 24 17
-25 3z"/>
<path d="M849 432 c11 -21 41 -48 41 -38 0 4 -7 18 -16 31 -19 29 -40 34 -25
7z"/>
<path d="M890 440 c-9 -6 -10 -10 -3 -10 6 0 15 5 18 10 8 12 4 12 -15 0z"/>
<path d="M784 405 c3 -8 1 -17 -4 -20 -14 -9 -12 -17 9 -45 19 -24 20 -24 40
-6 l21 19 -22 24 c-13 14 -21 27 -18 30 3 4 -3 7 -13 9 -12 2 -17 -2 -13 -11z"/>
<path d="M2010 341 c-17 -34 -29 -61 -26 -61 2 0 24 20 49 44 25 24 49 41 53
37 3 -3 5 3 2 14 -2 11 -13 21 -25 23 -18 3 -28 -8 -53 -57z"/>
<path d="M1996 364 c-4 -9 -4 -19 -1 -22 2 -3 7 3 11 12 4 9 4 19 1 22 -2 3
-7 -3 -11 -12z"/>
<path d="M1862 329 c-16 -25 -15 -49 1 -49 21 0 36 34 23 52 -11 15 -13 15
-24 -3z"/>
<path d="M1744 276 c-9 -23 -4 -26 62 -42 53 -12 60 -11 98 9 l41 21 -50 7
c-27 3 -71 10 -97 14 -40 6 -49 5 -54 -9z m76 -6 c13 -9 13 -10 0 -10 -8 0
-22 5 -30 10 -13 9 -13 10 0 10 8 0 22 -5 30 -10z"/>
<path d="M730 330 c12 -16 24 -30 26 -30 3 0 -3 14 -13 30 -9 17 -21 30 -26
30 -5 0 1 -13 13 -30z"/>
<path d="M660 323 c0 -6 -8 -10 -17 -9 -26 2 -26 -25 0 -57 22 -28 23 -29 45
-10 l23 18 -26 34 c-14 19 -25 30 -25 24z"/>
<path d="M500 200 c-21 -29 -21 -32 -5 -56 l16 -25 29 23 c34 27 36 36 14 66
-20 29 -28 28 -54 -8z"/>
<path d="M2290 360 c0 -5 5 -10 10 -10 6 0 10 5 10 10 0 6 -4 10 -10 10 -5 0
-10 -4 -10 -10z"/>
<path d="M2374 282 c-6 -4 -16 -17 -23 -29 -7 -15 -19 -22 -33 -20 -24 2 -47
-40 -34 -64 30 -58 45 -82 46 -71 0 6 9 12 21 12 13 0 18 -4 13 -12 -5 -8 -3
-8 7 -2 20 13 69 12 69 0 1 -6 7 0 14 13 9 17 15 20 21 11 5 -8 11 -5 19 12 6
12 18 23 26 23 19 0 18 92 -2 110 -15 15 -128 28 -144 17z m121 -30 c-3 -3
-11 0 -18 7 -9 10 -8 11 6 5 10 -3 15 -9 12 -12z m-71 -23 c-3 -5 -10 -7 -15
-3 -5 3 -7 10 -3 15 3 5 10 7 15 3 5 -3 7 -10 3 -15z"/>
<path d="M813 239 c-35 -13 -62 -57 -61 -99 0 -22 4 -37 9 -34 5 3 9 -5 9 -18
0 -17 3 -19 9 -9 7 10 11 9 22 -5 16 -21 39 -29 39 -14 0 5 -6 10 -13 10 -7 0
-23 13 -35 29 -16 22 -20 38 -15 65 7 43 18 53 69 64 35 8 37 9 13 13 -14 3
-35 2 -46 -2z"/>
<path d="M902 213 c19 -22 31 -80 18 -88 -6 -3 -10 -15 -10 -25 0 -25 -15 -33
-38 -21 -22 12 -33 5 -26 -14 5 -13 24 -13 64 0 44 14 37 142 -8 160 -14 5
-14 4 0 -12z"/>
<path d="M813 208 c-14 -7 -22 -19 -21 -32 0 -12 -2 -28 -6 -37 -5 -10 -1 -19
8 -22 9 -4 16 -13 16 -22 0 -18 5 -19 32 -4 14 8 23 8 31 0 18 -18 27 -13 27
13 0 14 5 28 10 31 8 5 7 11 0 20 -7 8 -9 19 -5 25 9 14 -24 39 -50 39 -11 0
-30 -5 -42 -11z m61 -31 c23 -17 11 -47 -20 -47 -26 0 -40 20 -30 45 7 18 26
19 50 2z"/>
<path d="M837 174 c-14 -15 -6 -34 14 -34 14 0 19 5 17 17 -3 18 -20 27 -31
17z"/>
<path d="M1290 146 c0 -3 9 -10 20 -16 11 -6 20 -8 20 -6 0 3 -9 10 -20 16
-11 6 -20 8 -20 6z"/>
<path d="M1405 160 c-8 -36 -7 -37 19 -42 14 -2 21 5 27 26 9 34 11 31 -18 40
-18 6 -22 2 -28 -24z"/>
</g>
</svg>
